<svg xmlns="http://www.w3.org/2000/svg" width="1200" height="675" viewBox="0 0 1200 675" role="img" aria-labelledby="title desc">
  <title id="title">Input Process Check Output</title>
  <desc id="desc">白底科技藍與淡紫色的 AI 入門課程資訊圖。</desc>
  <defs>
    <linearGradient id="bg" x1="0" y1="0" x2="1" y2="1">
      <stop offset="0" stop-color="#ffffff"/>
      <stop offset=".58" stop-color="#eef6ff"/>
      <stop offset="1" stop-color="#f3f0ff"/>
    </linearGradient>
    <pattern id="grid" width="36" height="36" patternUnits="userSpaceOnUse">
      <path d="M36 0H0V36" fill="none" stroke="#d8e6f7" stroke-width="1"/>
    </pattern>
  </defs>
  <rect width="1200" height="675" rx="42" fill="url(#bg)"/>
  <rect width="1200" height="675" rx="42" fill="url(#grid)" opacity=".65"/>
  <circle cx="1024" cy="116" r="82" fill="#ede9fe" opacity=".88"/>
  <circle cx="176" cy="560" r="74" fill="#dbeafe" opacity=".9"/>
  <text x="72" y="104" font-family="PingFang TC, Noto Sans TC, Microsoft JhengHei, sans-serif" font-size="42" font-weight="900" fill="#132238">Input Process Check Output</text>
  <rect x="72" y="132" width="210" height="10" rx="5" fill="#2563eb"/>
  <g>
    <rect x="92" y="302" width="156" height="72" rx="22" fill="#eef6ff" stroke="#2563eb" stroke-width="3"/>
    <circle cx="126" cy="338" r="13" fill="#2563eb" opacity=".9"/>
    <text x="150" y="345" font-family="PingFang TC, Noto Sans TC, Microsoft JhengHei, sans-serif" font-size="24" font-weight="800" fill="#132238">Input</text>
  </g><g>
    <rect x="290" y="302" width="156" height="72" rx="22" fill="#f3f0ff" stroke="#7c3aed" stroke-width="3"/>
    <circle cx="324" cy="338" r="13" fill="#7c3aed" opacity=".9"/>
    <text x="348" y="345" font-family="PingFang TC, Noto Sans TC, Microsoft JhengHei, sans-serif" font-size="24" font-weight="800" fill="#132238">Process</text>
  </g><g>
    <rect x="488" y="302" width="156" height="72" rx="22" fill="#eef6ff" stroke="#2563eb" stroke-width="3"/>
    <circle cx="522" cy="338" r="13" fill="#2563eb" opacity=".9"/>
    <text x="546" y="345" font-family="PingFang TC, Noto Sans TC, Microsoft JhengHei, sans-serif" font-size="24" font-weight="800" fill="#132238">Check</text>
  </g><g>
    <rect x="686" y="302" width="156" height="72" rx="22" fill="#f3f0ff" stroke="#7c3aed" stroke-width="3"/>
    <circle cx="720" cy="338" r="13" fill="#7c3aed" opacity=".9"/>
    <text x="744" y="345" font-family="PingFang TC, Noto Sans TC, Microsoft JhengHei, sans-serif" font-size="24" font-weight="800" fill="#132238">Output</text>
  </g><path d="M260 338 C269 338, 269 338, 278 338" fill="none" stroke="#93b7e8" stroke-width="5" stroke-linecap="round"/>
  <path d="M265 329 L278 338 L265 347" fill="none" stroke="#93b7e8" stroke-width="5" stroke-linecap="round" stroke-linejoin="round"/><path d="M458 338 C467 338, 467 338, 476 338" fill="none" stroke="#93b7e8" stroke-width="5" stroke-linecap="round"/>
  <path d="M463 329 L476 338 L463 347" fill="none" stroke="#93b7e8" stroke-width="5" stroke-linecap="round" stroke-linejoin="round"/><path d="M656 338 C665 338, 665 338, 674 338" fill="none" stroke="#93b7e8" stroke-width="5" stroke-linecap="round"/>
  <path d="M661 329 L674 338 L661 347" fill="none" stroke="#93b7e8" stroke-width="5" stroke-linecap="round" stroke-linejoin="round"/>
</svg>
