<svg xmlns="http://www.w3.org/2000/svg" width="1200" height="675" viewBox="0 0 1200 675" role="img" aria-labelledby="title desc">
  <title id="title">Prompt 五元素</title>
  <desc id="desc">白底科技藍與淡紫色的 AI 入門課程資訊圖。</desc>
  <defs>
    <linearGradient id="bg" x1="0" y1="0" x2="1" y2="1">
      <stop offset="0" stop-color="#ffffff"/>
      <stop offset=".58" stop-color="#eef6ff"/>
      <stop offset="1" stop-color="#f3f0ff"/>
    </linearGradient>
    <pattern id="grid" width="36" height="36" patternUnits="userSpaceOnUse">
      <path d="M36 0H0V36" fill="none" stroke="#d8e6f7" stroke-width="1"/>
    </pattern>
  </defs>
  <rect width="1200" height="675" rx="42" fill="url(#bg)"/>
  <rect width="1200" height="675" rx="42" fill="url(#grid)" opacity=".65"/>
  <circle cx="1024" cy="116" r="82" fill="#ede9fe" opacity=".88"/>
  <circle cx="176" cy="560" r="74" fill="#dbeafe" opacity=".9"/>
  <text x="72" y="104" font-family="PingFang TC, Noto Sans TC, Microsoft JhengHei, sans-serif" font-size="42" font-weight="900" fill="#132238">Prompt 五元素</text>
  <rect x="72" y="132" width="210" height="10" rx="5" fill="#2563eb"/>
  <circle cx="600" cy="348" r="92" fill="#ffffff" stroke="#2563eb" stroke-width="4"/>
  <text x="600" y="358" text-anchor="middle" font-family="PingFang TC, Noto Sans TC, Microsoft JhengHei, sans-serif" font-size="28" font-weight="900" fill="#132238">Prompt 五元素</text><g>
    <rect x="116" y="152" width="156" height="72" rx="22" fill="#eef6ff" stroke="#2563eb" stroke-width="3"/>
    <circle cx="150" cy="188" r="13" fill="#2563eb" opacity=".9"/>
    <text x="174" y="195" font-family="PingFang TC, Noto Sans TC, Microsoft JhengHei, sans-serif" font-size="24" font-weight="800" fill="#132238">角色</text>
  </g><g>
    <rect x="464" y="126" width="156" height="72" rx="22" fill="#f3f0ff" stroke="#7c3aed" stroke-width="3"/>
    <circle cx="498" cy="162" r="13" fill="#7c3aed" opacity=".9"/>
    <text x="522" y="169" font-family="PingFang TC, Noto Sans TC, Microsoft JhengHei, sans-serif" font-size="24" font-weight="800" fill="#132238">任務</text>
  </g><g>
    <rect x="824" y="152" width="156" height="72" rx="22" fill="#eef6ff" stroke="#2563eb" stroke-width="3"/>
    <circle cx="858" cy="188" r="13" fill="#2563eb" opacity=".9"/>
    <text x="882" y="195" font-family="PingFang TC, Noto Sans TC, Microsoft JhengHei, sans-serif" font-size="24" font-weight="800" fill="#132238">背景</text>
  </g><g>
    <rect x="234" y="470" width="156" height="72" rx="22" fill="#f3f0ff" stroke="#7c3aed" stroke-width="3"/>
    <circle cx="268" cy="506" r="13" fill="#7c3aed" opacity=".9"/>
    <text x="292" y="513" font-family="PingFang TC, Noto Sans TC, Microsoft JhengHei, sans-serif" font-size="24" font-weight="800" fill="#132238">限制</text>
  </g><g>
    <rect x="716" y="470" width="156" height="72" rx="22" fill="#eef6ff" stroke="#2563eb" stroke-width="3"/>
    <circle cx="750" cy="506" r="13" fill="#2563eb" opacity=".9"/>
    <text x="774" y="513" font-family="PingFang TC, Noto Sans TC, Microsoft JhengHei, sans-serif" font-size="24" font-weight="800" fill="#132238">格式</text>
  </g><line x1="600" y1="348" x2="194" y2="188" stroke="#c9dcf6" stroke-width="4" stroke-linecap="round"/><line x1="600" y1="348" x2="542" y2="162" stroke="#c9dcf6" stroke-width="4" stroke-linecap="round"/><line x1="600" y1="348" x2="902" y2="188" stroke="#c9dcf6" stroke-width="4" stroke-linecap="round"/><line x1="600" y1="348" x2="312" y2="506" stroke="#c9dcf6" stroke-width="4" stroke-linecap="round"/><line x1="600" y1="348" x2="794" y2="506" stroke="#c9dcf6" stroke-width="4" stroke-linecap="round"/>
</svg>
